<svg xmlns="http://www.w3.org/2000/svg" version="1.1" viewBox="0 0 2000 2000" width="1280" height="1280">
<path transform="translate(509,520)" d="m0 0 81 1 7 6 9 16 8 16 14 29 15 33 17 36 15 33 19 41 18 39 14 30 13 28 16 35 10 22 2 1 3-9 18-40 13-30 18-41 17-39 19-44 13-30 20-45 26-60 8-16 6-8 5-3 44-1h42l1 1v5l-2 2-5 1-22 2-15 3-11 6-6 8-4 11v46l6 140 4 100 3 60 3 15 3 6 5 5 8 4 10 2 32 3 2 1v5l-3 2h-151l-1-1v-6l7-2 23-2 10-3 6-4 5-6 2-9v-29l-1-42-3-69-2-67-2-45-2-59-1-24-3 3-11 26-17 39-42 97-20 46-42 97-13 30-11 25-5 4-6-3-6-10-14-30-30-66-16-36-7-15-13-29-7-15-15-32-15-33-13-29-15-33-14-29-3-7-1 32-1 68-2 71-1 57v84l2 16 5 13 7 8 12 6 17 3 14 2 1 1v6l-2 1h-128v-6l2-3 18-2 12-4 8-6 5-6 5-12 3-17 1-20 2-79 3-152 2-86-4-7-9-7-16-8-16-3-9-1-2-2v-6z" fill="#ffffff"/>
<path transform="translate(1057,1038)" d="m0 0h6l2 2 1 11 1 3 7 3 19 2 252 1 14 1 1 4-4 9-10 15-11 16-19 28-11 16-16 23-11 16-9 13-22 32-19 28-11 16-17 25-13 19-11 16-7 10-15 22-11 16-13 19-16 23-8 12-11 16-11 17-1 2h156l55-1 14-2 20-6 11-6 10-9 7-9 7-14 5-17 3-12 7-1 1 5-4 34-4 36-2 13-3 4h-127l-201-1-8-1 1-7 10-16 8-11 32-46 13-19 16-23 15-22 12-17 13-19 7-10 22-32 13-19 12-17 15-22 16-23 12-17 16-23 11-16 14-20 15-22 9-14-110 1-44 1-37 2-30 5-15 5-9 6-5 5-6 8-8 15-10 25-1 1-7-1-1-3 19-71 8-31z" fill="#ffffff"/>
<path transform="translate(1176,765)" d="m0 0h5l7 5-3 6-11 16-16 23-13 18-14 20-12 17-13 18-9 13-10 14-32 46-9 13-12 17-16 23-12 17-10 14-11 16-12 17-14 20-13 18-9 13-20 28-14 20-12 17-16 23-11 16-10 14-16 23-28 40-24 34-20 28-7 9-5-1-5-4 1-5 36-51 14-20 24-34 14-20 13-19 12-17 28-40 13-18 11-16 12-17 14-20 13-18 13-19 24-34 56-80 24-34 42-60 13-18 13-19 11-15 14-20 8-12z" fill="#ffffff"/>
</svg>